<svg width="338" height="32" viewBox="0 0 338 32" fill="none" xmlns="http://www.w3.org/2000/svg">
<path d="M33.1734 0.260001L31.0574 7.896H0.421387L5.29738 0.260001H33.1734ZM21.2594 10.978L15.6934 31.954H5.15938L10.8634 10.978H21.2594ZM66.0838 7.988H35.7698C36.3832 5.90267 37.4258 4.13933 38.8978 2.698C40.7072 0.950003 42.5778 0.076004 44.5098 0.076004H60.1498C64.1058 0.076004 66.0838 2.17667 66.0838 6.378C66.0838 7.42067 66.0838 7.95733 66.0838 7.988ZM65.4398 10.932L65.2558 11.668C64.7652 13.2627 63.9218 16.176 62.7258 20.408C61.9592 23.076 60.7785 25.3147 59.1838 27.124C56.3012 30.3747 52.4372 32 47.5918 32H42.1178C39.1738 32 36.8432 31.448 35.1258 30.344C33.0098 29.0253 31.9518 26.986 31.9518 24.226C31.9518 22.754 32.1818 21.19 32.6418 19.534L34.9418 11.024H45.6598L42.4858 22.202C42.3632 22.7233 42.3018 23.122 42.3018 23.398C42.3018 24.0113 42.5778 24.3947 43.1298 24.548H49.7998C50.6278 24.3333 51.2412 23.5513 51.6398 22.202L54.9518 10.978L65.4398 10.932ZM104.698 7.942H69.3243L74.0623 0.260001H100.052C100.758 0.260001 101.478 0.505335 102.214 0.996003C102.95 1.48666 103.487 2.06933 103.824 2.744C104.407 3.81733 104.698 5.55 104.698 7.942ZM103.87 10.978C103.748 11.7447 103.456 12.634 102.996 13.646C101.187 17.418 96.863 19.304 90.0243 19.304H79.4443L75.9023 31.954H65.3683L71.1183 11.024L103.87 10.978ZM138.875 0.260001L136.759 7.896H106.123L110.999 0.260001H138.875ZM126.961 10.978L121.395 31.954H110.861L116.565 10.978H126.961ZM154.305 0.260001L152.189 7.988H141.103L143.311 0.260001H154.305ZM151.499 10.978L145.749 31.954H134.571L140.413 10.978H151.499ZM192.7 7.942H157.326L162.064 0.260001H188.054C188.76 0.260001 189.48 0.505335 190.216 0.996003C190.952 1.48666 191.489 2.06933 191.826 2.744C192.409 3.81733 192.7 5.55 192.7 7.942ZM191.872 10.978C191.75 11.7447 191.458 12.634 190.998 13.646C189.189 17.418 184.865 19.304 178.026 19.304H167.446L163.904 31.954H153.37L159.12 11.024L191.872 10.978ZM231.109 7.942H195.735L200.473 0.260001H226.463C227.168 0.260001 227.889 0.505335 228.625 0.996003C229.361 1.48666 229.897 2.06933 230.235 2.744C230.817 3.81733 231.109 5.55 231.109 7.942ZM230.281 10.978C230.158 11.7447 229.867 12.634 229.407 13.646C227.597 17.418 223.273 19.304 216.435 19.304H205.855L202.313 31.954H191.779L197.529 11.024L230.281 10.978ZM263.951 0.260001L261.927 7.988H231.935L236.903 0.260001H263.951ZM260.961 10.978L258.753 19.35H243.803L242.607 23.674H257.419L255.211 31.954H228.209L233.821 10.978H260.961ZM301.199 7.896H265.549L270.425 0.260001H296.599C297.305 0.260001 298.01 0.505335 298.715 0.996003C299.451 1.48666 300.003 2.06933 300.371 2.744C300.923 3.756 301.199 5.47333 301.199 7.896ZM300.647 10.978C300.402 12.8487 299.329 14.612 297.427 16.268C296.569 17.0347 295.848 17.51 295.265 17.694C295.971 18.798 296.323 19.9633 296.323 21.19C296.323 21.8953 296.216 22.892 296.001 24.18C295.879 24.9773 295.081 27.5687 293.609 31.954H283.305L286.985 19.304H276.129L272.219 31.954H261.501L267.665 10.978H300.647ZM337.461 0.260001L335.391 7.896H305.583C306.227 5.93333 307.407 4.20067 309.125 2.698C310.995 1.07266 312.897 0.260001 314.829 0.260001H337.461ZM329.687 29.056C328.46 30.3133 326.559 31.2947 323.983 32L298.867 31.954L301.305 23.214L318.693 23.306C320.195 23.122 320.947 22.386 320.947 21.098C320.947 20.3313 320.839 19.81 320.625 19.534C320.441 19.258 319.981 18.9973 319.245 18.752H310.367C308.435 18.752 307.024 18.2767 306.135 17.326C305.245 16.3447 304.801 14.7653 304.801 12.588C304.801 11.5147 304.801 10.978 304.801 10.978H325.133C327.617 11.2847 329.288 11.7753 330.147 12.45C330.269 12.542 331.097 13.4467 332.631 15.164C333.213 16.636 333.505 18.3073 333.505 20.178C333.505 23.582 332.232 26.5413 329.687 29.056Z" fill="#383434"/>
</svg>
