<svg width="35" height="35" viewBox="0 0 35 35" fill="none" xmlns="http://www.w3.org/2000/svg">
<path d="M17.5 0C7.84737 0 0 7.84737 0 17.5C0 27.1526 7.84737 35 17.5 35C27.1526 35 35 27.1526 35 17.5C35 7.84737 27.1526 0 17.5 0ZM29.1053 8.17895C29.0685 8.2157 29.0315 8.28945 29.0315 8.3262L27.3737 13.4105L22.3999 15.0316L18.3471 12.0842L18.3474 6.81588L22.6579 3.68416C22.6946 3.64742 22.7316 3.61041 22.7684 3.57366L22.8789 3.4264L23.0264 3.4999C25.421 4.45773 27.5211 5.96832 29.1423 7.92089L29.216 8.03139L29.1053 8.17895ZM23.0264 16.6158L27.9264 15.0317L32.237 18.1632C32.2737 18.1999 32.3107 18.1999 32.3475 18.2369L32.5317 18.3107V18.4212C32.3845 20.9633 31.5739 23.4685 30.2106 25.6054L30.1369 25.7159L29.9526 25.6791C29.8788 25.6791 29.8421 25.6424 29.8054 25.6424H24.4633L21.4421 21.5161L23.0264 16.6158ZM17.5001 32.5684C16.2843 32.5684 14.995 32.3842 13.7422 32.0894L13.6317 32.0526L13.5949 31.8684C13.5949 31.7946 13.5949 31.7579 13.5582 31.7211L11.9003 26.6738L14.9213 22.5473H20.079L23.0632 26.6368L21.4053 31.7211C21.4053 31.7578 21.3686 31.7948 21.3686 31.8683L21.3318 32.0526L21.2213 32.0893C20.0053 32.4211 18.7159 32.5684 17.5001 32.5684L17.5001 32.5684ZM11.937 16.6158L13.5211 21.4791L10.4999 25.6053H5.19487C5.15812 25.6053 5.08436 25.6053 5.04761 25.6421L4.86335 25.6788L4.78959 25.6053C3.4265 23.4685 2.61597 21.0001 2.46847 18.4211V18.3106L2.61599 18.2369C2.65274 18.2001 2.72649 18.2001 2.76324 18.1631L7.07377 15.0314L11.937 16.6158ZM5.89493 7.92105C7.51605 5.96842 9.61592 4.42112 12.0108 3.50007L12.1213 3.46332L12.2686 3.61057C12.3053 3.64732 12.3423 3.68433 12.3791 3.72108L16.6158 6.81601V12.0476L12.563 14.995L7.58919 13.3739L5.96807 8.28963C5.96807 8.25288 5.93132 8.21588 5.89432 8.14238L5.82056 7.99512L5.89493 7.92105Z" fill="white"/>
</svg>
