<svg width="29" height="29" viewBox="0 0 29 29" fill="none" xmlns="http://www.w3.org/2000/svg">
<path fill-rule="evenodd" clip-rule="evenodd" d="M7.76913 2.28508V1.82807L7.76897 1.82802C7.26442 1.82802 6.85496 1.41856 6.85496 0.914011C6.85496 0.409467 7.26442 0 7.76897 0H20.5651C21.0697 0 21.4791 0.409467 21.4791 0.914011C21.4791 1.41856 21.0697 1.82802 20.5651 1.82802V2.28503H22.3931C22.8981 2.28503 23.3072 2.69409 23.3072 3.19904V5.02706C23.3072 6.93954 22.2487 8.50906 20.4207 8.66942C19.8614 11.2593 17.7341 13.266 15.0813 13.6453V15.2138C16.1122 15.5213 16.9258 16.3353 17.2333 17.3662H19.6513C20.1563 17.3662 20.5653 17.7753 20.5653 18.2802V27.4203C20.5653 27.9253 20.1563 28.3343 19.6513 28.3343H8.68319C8.17824 28.3343 7.76918 27.9253 7.76918 27.4203V18.2802C7.76918 17.7753 8.17824 17.3662 8.68319 17.3662H11.1012C11.4087 16.3353 12.2223 15.5213 13.2532 15.2138V13.6453C10.6021 13.2665 8.47563 11.262 7.91438 8.67355C6.05946 8.53791 5.02709 6.95714 5.02709 5.02711V3.19909C5.02709 2.69414 5.43615 2.28508 5.9411 2.28508H7.76913ZM6.85511 4.1131H7.76913V6.80249C7.08035 6.60642 6.85511 5.88581 6.85511 5.02711V4.1131ZM21.4793 5.02711C21.4793 5.86628 21.2294 6.57361 20.5653 6.78844V4.1131H21.4793V5.02711ZM5.9411 20.5653H0.914042C0.40909 20.5653 3.05176e-05 20.9744 3.05176e-05 21.4793V27.4204C3.05176e-05 27.9253 0.40909 28.3344 0.914042 28.3344H5.9411C6.44565 28.3344 6.85511 27.9249 6.85511 27.4204V21.4793C6.85511 20.9748 6.44565 20.5653 5.9411 20.5653ZM21.4793 24.4501V27.4206C21.4793 27.9252 21.8888 28.3347 22.3933 28.3347H27.4204C27.9253 28.3347 28.3344 27.9256 28.3344 27.4206V24.4501C28.3344 23.9452 27.9253 23.5361 27.4204 23.5361H22.3933C21.8888 23.5361 21.4793 23.9456 21.4793 24.4501Z" fill="white"/>
</svg>
